<?xml version="1.0" encoding="iso-8859-1"?>
<!-- Generator: Adobe Illustrator 17.1.0, SVG Export Plug-In . SVG Version: 6.00 Build 0)  -->
<!DOCTYPE svg PUBLIC "-//W3C//DTD SVG 1.1//EN" "http://www.w3.org/Graphics/SVG/1.1/DTD/svg11.dtd">
<svg version="1.1" id="Capa_1" xmlns="http://www.w3.org/2000/svg" xmlns:xlink="http://www.w3.org/1999/xlink" x="0px" y="0px"
	 viewBox="0 0 373.455 373.455" style="enable-background:new 0 0 373.455 373.455;" xml:space="preserve">
<path d="M212.589,165.674c0,28.362-23.075,51.436-51.438,51.436h-28.668c-4.971,0-9-4.029-9-9s4.029-9,9-9h28.668
	c18.438,0,33.438-15,33.438-33.436s-15-33.436-33.438-33.436h-57.625v117.978c0,4.971-4.029,9-9,9s-9-4.029-9-9V123.24
	c0-0.001,0,0,0-0.001c0-4.971,4.029-9,9-9h66.625C189.514,114.239,212.589,137.313,212.589,165.674z M282.047,229.348
	c-4.971,0-9,4.029-9,9v20.038c0,4.971,4.029,9,9,9s9-4.029,9-9v-20.038C291.047,233.377,287.018,229.348,282.047,229.348z
	 M282.047,106.069c-4.971,0-9,4.029-9,9v20.037c0,4.971,4.029,9,9,9s9-4.029,9-9v-20.037
	C291.047,110.099,287.018,106.069,282.047,106.069z M373.455,82.53v208.394c0,21.009-17.091,38.101-38.099,38.101H38.099
	C17.091,329.024,0,311.933,0,290.924V82.53c0-21.008,17.091-38.1,38.099-38.1h297.257C356.364,44.431,373.455,61.522,373.455,82.53z
	 M355.455,82.53c0-11.083-9.017-20.1-20.099-20.1h-44.31v11.036c0,4.971-4.029,9-9,9s-9-4.029-9-9V62.431H38.099
	C27.017,62.431,18,71.447,18,82.53v208.394c0,11.083,9.017,20.101,20.099,20.101h234.948v-11.036c0-4.971,4.029-9,9-9s9,4.029,9,9
	v11.036h44.31c11.082,0,20.099-9.017,20.099-20.101V82.53z M282.047,167.708c-4.971,0-9,4.029-9,9v20.038c0,4.971,4.029,9,9,9
	s9-4.029,9-9v-20.038C291.047,171.738,287.018,167.708,282.047,167.708z"/>
<g>
</g>
<g>
</g>
<g>
</g>
<g>
</g>
<g>
</g>
<g>
</g>
<g>
</g>
<g>
</g>
<g>
</g>
<g>
</g>
<g>
</g>
<g>
</g>
<g>
</g>
<g>
</g>
<g>
</g>
</svg>
