<svg height="480pt" viewBox="0 -64 480.0955 480" width="480pt" xmlns="http://www.w3.org/2000/svg"><path d="m335.292969 320.046875h40.800781c4.417969 0 8-3.582031 8-8v-64c0-4.417969-3.582031-8-8-8h-8v-118.445313l39.425781-102.691406c.816407-2.136718.683594-4.523437-.375-6.554687-1.054687-2.03125-2.933593-3.511719-5.152343-4.066407l-32-8c-3.996094-1.003906-8.097657 1.191407-9.480469 5.070313l-12 33.601563-16.351563-32.722657-229.601562 76.539063 9.550781 38.230468v119.039063h-8c-4.417969 0-8 3.582031-8 8v12.738281l-24.800781-24.738281 14.34375-14.34375c3.125-3.125 3.125-8.1875 0-11.3125l-32-32c-3.121094-3.121094-8.1875-3.121094-11.308594 0l-40 40c-3.125 3.125-3.125 8.1875 0 11.3125l32 32c3.121094 3.125 8.1875 3.125 11.308594 0l14.402344-14.351563 36.070312 36v28.695313c0 4.417969 3.582031 8 8 8h40.800781c1.238281 5.820313 3.765625 11.289063 7.402344 16h-16.273437v16h256v-16h-64.152344c3.632812-4.710937 6.160156-10.179687 7.390625-16zm-295.238281-75.3125-20.6875-20.6875 28.6875-28.6875 20.6875 20.6875zm304-145.703125 29.09375-81.464844 16.203124 4.050782-34.722656 90.429687h-10.574218zm8.046874 125.015625v16h-88v-80h-112v80h-24v-112h159.953126v56c0 13.253906 10.746093 24 24 24 13.253906 0 24-10.746094 24-24v-56h16.046874v80h-16.046874v16zm-120 0v-48h16v64h-80v-64h16v48zm-32-16v-32h16v32zm-28.960937-96 60.914063-19.574219v19.574219zm76.914063 0v-24h16v24zm32 0v-32h48v32zm40 16v56c0 4.417969-3.582032 8-8 8-4.417969 0-8-3.582031-8-8v-56zm19.246093-63.277344c-1.019531-.46875-2.125-.714843-3.246093-.722656h-15.578126l21.554688-6.925781zm-15.246093-38.9375 8.726562 17.414063-206.992188 66.570312-4.136718-16.519531zm-139.953126 310.214844c-13.253906 0-24-10.746094-24-24s10.746094-24 24-24c13.253907 0 24 10.746094 24 24s-10.746093 24-24 24zm31.800782 0c3.632812-4.710937 6.160156-10.179687 7.390625-16h33.601562c1.238281 5.820313 3.765625 11.289063 7.398438 16zm80.199218 0c-13.253906 0-24-10.746094-24-24s10.746094-24 24-24c13.253907 0 24 10.746094 24 24s-10.746093 24-24 24zm0-64c-19 .023437-35.371093 13.390625-39.199218 32h-33.601563c-3.785156-18.640625-20.175781-32.039063-39.199219-32.039063-19.023437 0-35.414062 13.398438-39.199218 32.039063h-32.800782v-48h256v48h-32.800781c-3.824219-18.613281-20.195312-31.976563-39.199219-32zm0 0"/><path d="m480.054688 192.847656c.21875-2.140625-.4375-4.28125-1.816407-5.9375l-40-48c-2.789062-3.34375-7.742187-3.839844-11.144531-1.117187l-40 32c-1.679688 1.34375-2.746094 3.304687-2.964844 5.445312-.214844 2.140625.441406 4.277344 1.820313 5.929688l40 48c2.792969 3.34375 7.746093 3.84375 11.144531 1.121093l40-32c1.675781-1.34375 2.746094-3.304687 2.960938-5.441406zm-46.832032 20.039063-29.761718-35.695313 27.503906-22 29.761718 35.695313zm0 0"/><path d="m432.054688 120.097656 8-.050781h8c-.300782-22.738281-15.960938-42.386719-38.054688-47.757813l-3.890625 15.519532c14.941406 3.679687 25.566406 16.90625 25.945313 32.289062zm0 0"/><path d="m408.054688 136.046875 7.589843 2.527344c1.632813-5.394531 2.085938-11.078125 1.328125-16.664063-1.738281-12.183594-10.535156-22.175781-22.398437-25.445312l-5.054688 15.199218c4.539063 1.191407 8.34375 4.289063 10.4375 8.488282 2.089844 4.203125 2.265625 9.105468.480469 13.449218zm0 0"/><path d="m.0546875 336.046875h88.0000005v16h-88.0000005zm0 0"/><path d="m104.054688 336.046875h16v16h-16zm0 0"/><path d="m408.054688 336.046875h16v16h-16zm0 0"/><path d="m440.054688 336.046875h40v16h-40zm0 0"/></svg>